<svg width="20" height="19" viewBox="0 0 20 19" fill="none" xmlns="http://www.w3.org/2000/svg">
<path d="M18.75 8.19883H3.925L8.4625 2.74883C8.67467 2.49356 8.77675 2.16446 8.74628 1.83393C8.7158 1.50339 8.55527 1.1985 8.3 0.986331C8.04473 0.774158 7.71563 0.67208 7.3851 0.702555C7.05456 0.73303 6.74967 0.89356 6.5375 1.14883L0.2875 8.64883C0.245451 8.70849 0.207849 8.77116 0.175 8.83633C0.175 8.89883 0.175 8.93633 0.0875002 8.99883C0.0308421 9.14215 0.0011764 9.29472 0 9.44883C0.0011764 9.60294 0.0308421 9.75551 0.0875002 9.89883C0.0875002 9.96133 0.0874998 9.99883 0.175 10.0613C0.207849 10.1265 0.245451 10.1892 0.2875 10.2488L6.5375 17.7488C6.65503 17.8899 6.8022 18.0034 6.96856 18.0812C7.13491 18.159 7.31636 18.1991 7.5 18.1988C7.79207 18.1994 8.07511 18.0977 8.3 17.9113C8.42657 17.8064 8.5312 17.6775 8.60789 17.5321C8.68458 17.3867 8.73183 17.2275 8.74692 17.0638C8.76202 16.9001 8.74466 16.735 8.69586 16.578C8.64705 16.421 8.56775 16.2751 8.4625 16.1488L3.925 10.6988H18.75C19.0815 10.6988 19.3995 10.5671 19.6339 10.3327C19.8683 10.0983 20 9.78035 20 9.44883C20 9.11731 19.8683 8.79937 19.6339 8.56495C19.3995 8.33053 19.0815 8.19883 18.75 8.19883Z"/>
</svg>
