<svg width="20" height="19" viewBox="0 0 20 19" fill="none" xmlns="http://www.w3.org/2000/svg">
<path d="M1.25 8.19883H16.075L11.5375 2.74883C11.3253 2.49356 11.2232 2.16446 11.2537 1.83393C11.2842 1.50339 11.4447 1.1985 11.7 0.986331C11.9553 0.774158 12.2844 0.67208 12.6149 0.702555C12.9454 0.73303 13.2503 0.89356 13.4625 1.14883L19.7125 8.64883C19.7545 8.70849 19.7922 8.77116 19.825 8.83633C19.825 8.89883 19.825 8.93633 19.9125 8.99883C19.9692 9.14215 19.9988 9.29472 20 9.44883C19.9988 9.60294 19.9692 9.75551 19.9125 9.89883C19.9125 9.96133 19.9125 9.99883 19.825 10.0613C19.7922 10.1265 19.7545 10.1892 19.7125 10.2488L13.4625 17.7488C13.345 17.8899 13.1978 18.0034 13.0314 18.0812C12.8651 18.159 12.6836 18.1991 12.5 18.1988C12.2079 18.1994 11.9249 18.0977 11.7 17.9113C11.5734 17.8064 11.4688 17.6775 11.3921 17.5321C11.3154 17.3867 11.2682 17.2275 11.2531 17.0638C11.238 16.9001 11.2553 16.735 11.3041 16.578C11.3529 16.421 11.4322 16.2751 11.5375 16.1488L16.075 10.6988H1.25C0.91848 10.6988 0.600536 10.5671 0.366116 10.3327C0.131695 10.0983 0 9.78035 0 9.44883C0 9.11731 0.131695 8.79937 0.366116 8.56495C0.600536 8.33053 0.91848 8.19883 1.25 8.19883Z"/>
</svg>
