<svg width="16" height="16" viewBox="0 0 16 16" fill="none" xmlns="http://www.w3.org/2000/svg">
<g clip-path="url(#clip0_734_203)">
<path d="M12.6666 5.33325C11.5621 5.33325 10.6666 4.43782 10.6666 3.33325C10.6666 2.22868 11.5621 1.33325 12.6666 1.33325C13.7712 1.33325 14.6666 2.22868 14.6666 3.33325C14.6666 4.43782 13.7712 5.33325 12.6666 5.33325Z" stroke="white" style="stroke:white;stroke-opacity:1;"/>
<path d="M9.33337 1.46661C8.90257 1.37916 8.45664 1.33325 8.00004 1.33325C6.78577 1.33325 5.64729 1.6579 4.66671 2.22513M14.5334 6.66658C14.6208 7.09738 14.6667 7.54332 14.6667 7.99992C14.6667 11.6818 11.6819 14.6666 8.00004 14.6666C6.93357 14.6666 5.92562 14.4162 5.03173 13.9709C4.79418 13.8527 4.52266 13.8133 4.2663 13.8819L2.78227 14.2789C2.13805 14.4513 1.54867 13.8619 1.72105 13.2177L2.11812 11.7337C2.18671 11.4773 2.14733 11.2058 2.02901 10.9683C1.58379 10.0743 1.33337 9.06638 1.33337 7.99992C1.33337 6.78565 1.65802 5.64717 2.22525 4.66659" stroke="white" style="stroke:white;stroke-opacity:1;" stroke-linecap="round"/>
</g>
<defs>
<clipPath id="clip0_734_203">
<rect width="16" height="16" fill="white" style="fill:white;fill-opacity:1;"/>
</clipPath>
</defs>
</svg>
