<svg width="7" height="7" viewBox="0 0 7 7" fill="none" xmlns="http://www.w3.org/2000/svg">
<path d="M6.98869 2.65559C6.96266 2.57781 6.89528 2.52115 6.81423 2.50868L4.66229 2.17986L3.6981 0.125795C3.662 0.0490054 3.58478 0 3.50001 0C3.41524 0 3.33813 0.0490054 3.30193 0.125795L2.33774 2.17986L0.185795 2.50879C0.104744 2.52115 0.0374754 2.57792 0.0113335 2.6557C-0.0146989 2.73336 0.00488011 2.81912 0.0621953 2.87786L1.62567 4.48115L1.25619 6.74589C1.24263 6.82859 1.27752 6.91183 1.3461 6.95996C1.38373 6.98655 1.42781 7 1.472 7C1.50831 7 1.54484 6.99081 1.57788 6.97265L3.4999 5.90952L5.42193 6.97265C5.45496 6.99081 5.4915 7 5.52781 7C5.572 7 5.61619 6.98655 5.65371 6.95996C5.72229 6.91183 5.75718 6.82859 5.74362 6.74589L5.37413 4.48115L6.93761 2.87786C6.99504 2.81901 7.01472 2.73325 6.98869 2.65559Z" fill="#E3E3E3" style="fill:#E3E3E3;fill:color(display-p3 0.8900 0.8900 0.8900);fill-opacity:1;"/>
</svg>
