<svg width="24" height="22" viewBox="0 0 24 22" fill="none" xmlns="http://www.w3.org/2000/svg">
<path d="M23.9255 6.24475C23.7349 4.82643 23.18 3.5137 22.3209 2.44836C21.5261 1.46264 20.495 0.72994 19.4178 0.385132C18.6174 0.129499 17.8287 0 17.0728 0C15.1107 0 13.3754 0.86308 12.1114 2.44914C10.7032 0.840176 9.04639 0.0256232 7.17667 0.0256232C6.47102 0.0256232 5.73486 0.14655 4.9886 0.384948C3.91045 0.729848 2.87916 1.4626 2.0841 2.44826C1.2247 3.51366 0.669704 4.82643 0.47905 6.24484C0.171064 8.53614 0.821461 11.0354 2.3601 13.4724C4.13861 16.2893 7.09063 19.0519 11.1341 21.6831C11.4528 21.8905 11.8221 22 12.2024 22C12.5826 22 12.952 21.8905 13.2706 21.6831C17.314 19.0518 20.266 16.2893 22.0444 13.4723C23.5829 11.0353 24.2334 8.53604 23.9255 6.24475ZM12.2023 20.7226C12.073 20.7226 11.9436 20.686 11.8307 20.6124C-2.63694 11.1979 1.46126 2.85455 5.37733 1.60173C6.02095 1.3961 6.61969 1.30301 7.17672 1.30301C9.10293 1.30301 10.5305 2.41647 11.5933 3.83939C11.7314 4.02428 11.9382 4.11649 12.1439 4.11649C12.3615 4.11649 12.5777 4.01317 12.7091 3.80736C13.6705 2.30264 15.1481 1.27752 17.0727 1.27752C17.6807 1.27752 18.3335 1.37997 19.0284 1.60182C22.9428 2.85464 27.041 11.198 12.5738 20.6126C12.4611 20.686 12.3316 20.7226 12.2023 20.7226Z" fill="currentColor" style="fill:currentColor;fill-opacity:1;"/>
<path d="M19.0328 1.59627C18.338 1.37442 17.6851 1.27197 17.0772 1.27197C15.1525 1.27197 13.6749 2.29718 12.7136 3.80181C12.5822 4.00762 12.3659 4.11095 12.1483 4.11095C11.9427 4.11095 11.7357 4.01882 11.5977 3.83384C10.5349 2.41096 9.10738 1.29746 7.18117 1.29746C6.62419 1.29746 6.0254 1.39055 5.38178 1.59618C1.46576 2.849 -2.63244 11.1923 11.8352 20.6069C11.9481 20.6804 12.0775 20.7171 12.2068 20.7171C12.3361 20.7171 12.4655 20.6805 12.5783 20.6069C27.0455 11.1924 22.9473 2.84909 19.0328 1.59627Z" fill="currentColor" fill-opacity="1" style="fill:currentColor;fill-opacity:1;"/>
</svg>
