<svg width="28" height="28" viewBox="0 0 28 28" fill="none" xmlns="http://www.w3.org/2000/svg">
<path fill-rule="evenodd" clip-rule="evenodd" d="M27.44 14.3177C27.44 13.325 27.3509 12.3705 27.1855 11.4541H14V16.8696H21.5345C21.21 18.6196 20.2236 20.1023 18.7409 21.095V24.6077H23.2655C25.9127 22.1705 27.44 18.5814 27.44 14.3177Z" fill="#4285F4" style="fill:#4285F4;fill:color(display-p3 0.2588 0.5216 0.9569);fill-opacity:1;"/>
<path fill-rule="evenodd" clip-rule="evenodd" d="M13.9999 28.0002C17.7799 28.0002 20.949 26.7465 23.2654 24.6083L18.7408 21.0956C17.4872 21.9356 15.8836 22.432 13.9999 22.432C10.3536 22.432 7.2672 19.9692 6.16629 16.6602H1.48901V20.2874C3.79265 24.8629 8.5272 28.0002 13.9999 28.0002Z" fill="#34A853" style="fill:#34A853;fill:color(display-p3 0.2039 0.6588 0.3255);fill-opacity:1;"/>
<path fill-rule="evenodd" clip-rule="evenodd" d="M6.16637 16.6602C5.88637 15.8202 5.72727 14.9229 5.72727 14.0002C5.72727 13.0774 5.88637 12.1802 6.16637 11.3402V7.71289H1.48909C0.540909 9.60289 0 11.7411 0 14.0002C0 16.2593 0.540909 18.3974 1.48909 20.2874L6.16637 16.6602Z" fill="#FBBC05" style="fill:#FBBC05;fill:color(display-p3 0.9843 0.7373 0.0196);fill-opacity:1;"/>
<path fill-rule="evenodd" clip-rule="evenodd" d="M13.9999 5.56818C16.0554 5.56818 17.9008 6.27455 19.3517 7.66182L23.3672 3.64637C20.9427 1.38727 17.7736 0 13.9999 0C8.5272 0 3.79265 3.13727 1.48901 7.71273L6.16629 11.34C7.2672 8.03091 10.3536 5.56818 13.9999 5.56818Z" fill="#EA4335" style="fill:#EA4335;fill:color(display-p3 0.9176 0.2627 0.2078);fill-opacity:1;"/>
</svg>
