<svg width="20" height="26" viewBox="0 0 20 26" fill="none" xmlns="http://www.w3.org/2000/svg">
<path d="M9.72615 25.0574C11.4361 23.5989 13.021 21.9999 14.4644 20.2772C16.6304 17.6901 19.2026 13.8373 19.2026 10.1658C19.2036 8.29077 18.6482 6.45759 17.6069 4.89827C16.5656 3.33896 15.0851 2.1236 13.3528 1.40601C11.6205 0.688424 9.7143 0.500862 7.87537 0.867063C6.03643 1.23326 4.34746 2.13677 3.02221 3.46322C2.13988 4.34164 1.44052 5.38632 0.964609 6.53682C0.488703 7.68732 0.245697 8.92077 0.24966 10.1658C0.24966 13.8373 2.82185 17.6901 4.9879 20.2772C6.4313 21.9999 8.01624 23.5989 9.72615 25.0574ZM9.72615 6.10446C10.8033 6.10446 11.8363 6.53235 12.598 7.294C13.3596 8.05565 13.7875 9.08867 13.7875 10.1658C13.7875 11.2429 13.3596 12.276 12.598 13.0376C11.8363 13.7993 10.8033 14.2272 9.72615 14.2272C8.64901 14.2272 7.61599 13.7993 6.85434 13.0376C6.09269 12.276 5.6648 11.2429 5.6648 10.1658C5.6648 9.08867 6.09269 8.05565 6.85434 7.294C7.61599 6.53235 8.64901 6.10446 9.72615 6.10446Z" fill="white" style="fill:white;fill-opacity:1;"/>
</svg>
