<svg width="17" height="24" viewBox="0 0 17 24" fill="none" xmlns="http://www.w3.org/2000/svg">
<path d="M3.06736 0.845929L4.3227 0.444596C5.49986 0.0689291 6.75753 0.676762 7.26153 1.86443L8.26486 4.23043C8.7012 5.2606 8.45853 6.47276 7.6652 7.22643L5.45436 9.3241C5.59086 10.5794 6.0132 11.8149 6.7202 13.0306C7.39158 14.2068 8.29213 15.2362 9.36853 16.0581L12.0239 15.1714C13.0295 14.8366 14.1262 15.2228 14.7422 16.1293L16.1807 18.2409C16.8982 19.2956 16.7687 20.7493 15.8785 21.6429L14.9254 22.6008C13.9757 23.5539 12.6189 23.9004 11.3647 23.5084C8.40136 22.5844 5.67953 19.8416 3.19453 15.2799C0.706031 10.7113 -0.172469 6.83326 0.560198 3.6506C0.868198 2.31126 1.82136 1.24376 3.06736 0.845929Z" fill="white" style="fill:white;fill-opacity:1;"/>
</svg>
