<svg width="21" height="17" viewBox="0 0 21 17" fill="none" xmlns="http://www.w3.org/2000/svg">
<g clip-path="url(#clip0_1422_6078)">
<path d="M19.9761 0.955078H13.9761C13.5641 0.955078 12.9871 1.19408 12.6961 1.48508L5.2571 8.92408C5.11683 9.065 5.03809 9.25574 5.03809 9.45458C5.03809 9.65341 5.11683 9.84415 5.2571 9.98508L11.6961 16.4241C11.837 16.5643 12.0278 16.6431 12.2266 16.6431C12.4254 16.6431 12.6162 16.5643 12.7571 16.4241L20.1961 8.98508C20.4881 8.69308 20.7261 8.11708 20.7261 7.70508V1.70508C20.7256 1.50633 20.6464 1.31587 20.5058 1.17533C20.3653 1.03479 20.1749 0.955606 19.9761 0.955078V0.955078ZM16.2261 6.95508C16.0291 6.95501 15.8339 6.91614 15.6519 6.84067C15.4699 6.7652 15.3045 6.65462 15.1652 6.51524C15.0259 6.37586 14.9155 6.21041 14.8401 6.02833C14.7648 5.84626 14.726 5.65113 14.7261 5.45408C14.7262 5.25703 14.765 5.06192 14.8405 4.8799C14.916 4.69788 15.0266 4.5325 15.1659 4.39321C15.3053 4.25392 15.4708 4.14345 15.6528 4.06811C15.8349 3.99276 16.0301 3.95401 16.2271 3.95408C16.6251 3.95421 17.0067 4.11243 17.288 4.39392C17.5693 4.67541 17.7272 5.05712 17.7271 5.45508C17.727 5.85304 17.5688 6.23464 17.2873 6.51595C17.0058 6.79725 16.6241 6.95521 16.2261 6.95508Z" fill="white" style="fill:white;fill-opacity:1;"/>
<path d="M2.7261 9.45508L11.2261 0.955078H9.9761C9.5641 0.955078 8.9871 1.19408 8.6961 1.48508L1.2571 8.92408C1.11683 9.065 1.03809 9.25574 1.03809 9.45458C1.03809 9.65341 1.11683 9.84415 1.2571 9.98508L7.6961 16.4241C7.83703 16.5643 8.02777 16.6431 8.2266 16.6431C8.42543 16.6431 8.61618 16.5643 8.7571 16.4241L9.2271 15.9541L2.7271 9.45408L2.7261 9.45508Z" fill="white" style="fill:white;fill-opacity:1;"/>
</g>
<defs>
<clipPath id="clip0_1422_6078">
<rect width="20" height="16" fill="white" style="fill:white;fill-opacity:1;" transform="translate(0.726074 0.955078)"/>
</clipPath>
</defs>
</svg>
